HIERARCHY
ROOT joint_Root
{
	OFFSET 0.0 0.0 0.0
	CHANNELS 6 Xposition Yposition Zposition Zrotation Xrotation Yrotation 
	JOINT Hips
	{
		OFFSET -0.726466 93.3139 -2.00062
		CHANNELS 6 Xposition Yposition Zposition Zrotation Xrotation Yrotation 
		JOINT Spine
		{
			OFFSET 15.7357 0.0 0.0
			CHANNELS 6 Xposition Yposition Zposition Zrotation Xrotation Yrotation 
			JOINT Chest
			{
				OFFSET 8.98455 -0.406207 0.0
				CHANNELS 6 Xposition Yposition Zposition Zrotation Xrotation Yrotation 
				JOINT Neck
				{
					OFFSET 16.3773 0.0 0.0
					CHANNELS 6 Xposition Yposition Zposition Zrotation Xrotation Yrotation 
					JOINT Head
					{
						OFFSET 6.45672 0.0 0.0
						CHANNELS 6 Xposition Yposition Zposition Zrotation Xrotation Yrotation 
						End Site
						{
							OFFSET 0.0 0.0 0.0
						}
					}
				}
				JOINT Shoulder_L
				{
					OFFSET 12.9942 -0.242716 4.98039
					CHANNELS 6 Xposition Yposition Zposition Zrotation Xrotation Yrotation 
					JOINT UpperArm_L
					{
						OFFSET 5.34809 0.0 0.0
						CHANNELS 6 Xposition Yposition Zposition Zrotation Xrotation Yrotation 
						JOINT LowerArm_L
						{
							OFFSET 24.3286 1.87007e-05 0.0
							CHANNELS 6 Xposition Yposition Zposition Zrotation Xrotation Yrotation 
							JOINT Hand_L
							{
								OFFSET 22.2916 0.0 0.0
								CHANNELS 6 Xposition Yposition Zposition Zrotation Xrotation Yrotation 
								End Site
								{
									OFFSET 0.0 0.0 0.0
								}
							}
						}
					}
				}
				JOINT Shoulder_R
				{
					OFFSET 12.9945 -0.242716 -4.98039
					CHANNELS 6 Xposition Yposition Zposition Zrotation Xrotation Yrotation 
					JOINT UpperArm_R
					{
						OFFSET -5.34813 0.0 0.0
						CHANNELS 6 Xposition Yposition Zposition Zrotation Xrotation Yrotation 
						JOINT LowerArm_R
						{
							OFFSET -24.3289 0.000322201 0.0
							CHANNELS 6 Xposition Yposition Zposition Zrotation Xrotation Yrotation 
							JOINT Hand_R
							{
								OFFSET -22.2915 -0.000108084 0.0
								CHANNELS 6 Xposition Yposition Zposition Zrotation Xrotation Yrotation 
								End Site
								{
									OFFSET 0.0 0.0 0.0
								}
							}
						}
					}
				}
			}
		}
		JOINT UpperLeg_L
		{
			OFFSET -2.19248 -6.46944 0.0
			CHANNELS 6 Xposition Yposition Zposition Zrotation Xrotation Yrotation 
			JOINT LowerLeg_L
			{
				OFFSET 39.0811 0.0 -1.23785e-05
				CHANNELS 6 Xposition Yposition Zposition Zrotation Xrotation Yrotation 
				JOINT Foot_L
				{
					OFFSET 40.9854 0.0 -1.26872e-05
					CHANNELS 6 Xposition Yposition Zposition Zrotation Xrotation Yrotation 
					JOINT Toes_L
					{
						OFFSET 11.7543 0.0 0.0
						CHANNELS 6 Xposition Yposition Zposition Zrotation Xrotation Yrotation 
						End Site
						{
							OFFSET 0.0 0.0 0.0
						}
					}
				}
			}
		}
		JOINT UpperLeg_R
		{
			OFFSET -2.19251 6.46944 0.0
			CHANNELS 6 Xposition Yposition Zposition Zrotation Xrotation Yrotation 
			JOINT LowerLeg_R
			{
				OFFSET -39.0811 -0.00228153 -0.0401928
				CHANNELS 6 Xposition Yposition Zposition Zrotation Xrotation Yrotation 
				JOINT Foot_R
				{
					OFFSET -40.9854 0.0 0.0
					CHANNELS 6 Xposition Yposition Zposition Zrotation Xrotation Yrotation 
					JOINT Toes_R
					{
						OFFSET -11.7543 0.0 0.0
						CHANNELS 6 Xposition Yposition Zposition Zrotation Xrotation Yrotation 
						End Site
						{
							OFFSET 0.0 0.0 0.0
						}
					}
				}
			}
		}
	}
}
MOTION
Frames:	4
Frame Time:	0.0333333
0.000000 0.000000 0.000000 0.000000 0.000000 -0.000000 -0.292865 93.012600 -1.158810 89.053000 -2.686260 1.540640 15.735700 0.000005 -0.000001 92.605300 86.497400 -92.746600 8.984550 -0.406207 -0.000000 -0.767584 0.328885 -0.280238 16.377300 -0.000001 -0.000001 2.259290 -2.498520 3.253950 6.456720 -0.000001 -0.000000 6.693310 -1.223690 -3.496510 12.994200 -0.242716 4.980390 -90.635700 2.102430 -73.172000 5.348090 -0.000007 -0.000001 -65.166500 37.067200 -15.782000 24.328600 0.000019 0.000005 6.003680 13.583300 -24.119600 22.291600 -0.000001 0.000005 0.977689 5.492430 -6.230960 12.994500 -0.242716 -4.980390 87.576000 8.229750 -73.525600 -5.348130 -0.000001 -0.000004 -62.815700 40.022200 -14.287800 -24.328900 0.000322 -0.000009 5.455800 13.302700 -22.546100 -22.291500 -0.000108 -0.000004 3.660110 5.349610 -1.360170 -2.192480 -6.469440 -0.000000 -176.950000 -8.499560 -2.817670 39.081100 -0.000007 -0.000012 -0.053492 0.176572 16.853900 40.985400 -0.000006 -0.000013 -0.092608 4.167660 -62.657900 11.754300 -0.000000 0.000003 -0.000003 -0.000043 -16.579200 -2.192510 6.469440 -0.000001 179.069000 10.752100 179.248000 -39.081100 -0.002282 -0.040193 -0.050358 0.214324 14.063600 -40.985400 0.000008 0.000006 0.852186 6.961480 -62.018800 -11.754300 -0.000006 -0.000006 -0.005775 -0.068778 -19.372100
0.000000 0.000000 0.000000 0.000000 0.000000 -0.000000 -0.294295 93.006800 -1.183880 89.063000 -2.604930 1.627520 15.735700 0.000005 -0.000001 92.477100 86.464100 -92.630600 8.984550 -0.406207 -0.000000 -0.700389 0.316911 -0.304833 16.377300 -0.000001 -0.000001 2.260740 -2.492640 3.302430 6.456720 -0.000001 -0.000000 6.667430 -1.208590 -3.452540 12.994200 -0.242716 4.980390 -90.698900 2.311820 -73.173700 5.348090 -0.000007 -0.000001 -62.794000 35.599500 -17.569200 24.328600 0.000019 0.000005 7.220810 14.096300 -27.485800 22.291600 -0.000001 0.000005 -0.191770 5.483670 -5.889530 12.994500 -0.242716 -4.980390 87.603700 8.152250 -73.558300 -5.348130 -0.000001 -0.000004 -61.351400 38.365200 -15.720800 -24.328900 0.000322 -0.000009 6.149420 13.264000 -25.157900 -22.291500 -0.000108 -0.000004 0.925892 5.334850 -0.921509 -2.192480 -6.469440 -0.000000 -176.952000 -8.392140 -2.795810 39.081100 -0.000007 -0.000012 -0.053547 0.175990 16.922800 40.985400 -0.000006 -0.000013 -0.090691 4.166140 -62.666800 11.754300 -0.000000 0.000003 -0.000001 -0.000018 -16.578200 -2.192510 6.469440 -0.000001 179.047000 10.720900 179.284000 -39.081100 -0.002282 -0.040193 -0.051599 0.218047 14.139800 -40.985400 0.000008 0.000006 0.803081 6.891490 -62.037800 -11.754300 -0.000006 -0.000006 -0.005660 -0.067717 -19.328800
0.000000 0.000000 0.000000 0.000000 0.000000 -0.000000 -0.307333 93.007500 -1.296330 89.051800 -2.553850 1.657890 15.735700 0.000005 -0.000001 92.432800 86.473900 -92.589500 8.984550 -0.406207 -0.000000 -0.719746 0.310890 -0.311258 16.377300 -0.000001 -0.000001 2.455700 -2.466990 3.325350 6.456720 -0.000001 -0.000000 6.688930 -1.269400 -3.387200 12.994200 -0.242716 4.980390 -90.717500 2.360900 -73.090200 5.348090 -0.000007 -0.000001 -59.801000 32.417700 -20.453300 24.328600 0.000019 0.000005 7.731320 12.824600 -31.452900 22.291600 -0.000001 0.000005 0.626088 5.484730 -5.928220 12.994500 -0.242716 -4.980390 87.582200 8.112800 -73.342900 -5.348130 -0.000001 -0.000004 -58.644600 35.505900 -18.777300 -24.328900 0.000322 -0.000009 7.014670 13.059500 -28.572000 -22.291500 -0.000108 -0.000004 -0.515993 5.319630 -0.483926 -2.192480 -6.469440 -0.000000 -176.934000 -8.351780 -2.893230 39.081100 -0.000007 -0.000012 -0.053992 0.176558 17.003600 40.985400 -0.000006 -0.000013 -0.101901 4.148330 -62.620100 11.754300 -0.000000 0.000003 -0.000003 -0.000043 -16.579200 -2.192510 6.469440 -0.000001 179.090000 10.710100 179.198000 -39.081100 -0.002282 -0.040193 -0.051803 0.217623 14.216600 -40.985400 0.000008 0.000006 0.810205 6.804200 -62.000100 -11.754300 -0.000006 -0.000006 -0.005759 -0.068631 -19.366100
0.000000 0.000000 0.000000 0.000000 0.000000 -0.000000 -0.314231 93.007800 -1.404240 89.018300 -2.589310 1.847250 15.735700 0.000005 -0.000001 92.570700 86.476300 -92.716400 8.984550 -0.406207 -0.000000 -0.725336 0.326821 -0.289161 16.377300 -0.000001 -0.000001 2.896720 -2.454630 3.368040 6.456720 -0.000001 -0.000000 6.979100 -1.328750 -3.328670 12.994200 -0.242716 4.980390 -90.688700 2.267160 -73.097200 5.348090 -0.000007 -0.000001 -57.105500 27.103800 -23.917000 24.328600 0.000019 0.000005 8.067370 11.243300 -36.021100 22.291600 -0.000001 0.000005 2.443750 5.499690 -6.511890 12.994500 -0.242716 -4.980390 87.581500 8.027580 -73.172700 -5.348130 -0.000001 -0.000004 -55.475900 31.135800 -22.727100 -24.328900 0.000322 -0.000009 8.125940 12.489900 -33.439500 -22.291500 -0.000108 -0.000004 0.688537 5.310150 -0.210842 -2.192480 -6.469440 -0.000000 -176.880000 -8.387280 -2.810310 39.081100 -0.000007 -0.000012 -0.053091 0.172625 17.095100 40.985400 -0.000006 -0.000013 -0.088285 4.177240 -62.601700 11.754300 -0.000000 0.000003 -0.000002 -0.000025 -16.578500 -2.192510 6.469440 -0.000001 179.088000 10.793000 179.308000 -39.081100 -0.002282 -0.040193 -0.052263 0.219072 14.239400 -40.985400 0.000008 0.000006 0.780695 6.917360 -61.933700 -11.754300 -0.000006 -0.000006 -0.005870 -0.069651 -19.407700
